#!OML:ASF H:\Terrain\Patient Classification 1\Terrain2\Thursday\justin.ASF
:FULLY-SPECIFIED
:DEGREES
1134
root -12.0226 17.242 21.8548 362.021 -169.084 -355.836
lowerback 5.50495 1.27051 0.765365
upperback 1.80971 1.64617 2.13811
thorax -1.2646 0.767093 1.66107
lowerneck -10.5176 -3.00677 -12.454
upperneck 37.24 -9.38858 8.45784
head 15.9435 -6.08469 3.91803
rclavicle -1.36664e-015 2.20651e-014
rhumerus -29.3075 -4.2577 -84.0761
rradius 38.7304
rwrist -13.5341
rhand -20.0543 12.5844
rfingers 7.12502
rthumb 6.28738 -17.3023
lclavicle -1.36664e-015 2.20651e-014
lhumerus -38.5166 7.33305 76.3063
lradius 29.5481
lwrist 2.83224
lhand -21.8509 20.8772
lfingers 7.12502
lthumb 4.5527 50.8083
rfemur -20.5394 -10.3706 27.1588
rtibia 47.8337
rfoot -25.4194 -4.19465
rtoes 7.94506
lfemur -11.7894 -0.397298 -13.6167
ltibia 35.6365
lfoot -23.0553 -8.80662
ltoes 1.91987
1135
root -12.0411 17.2251 21.8523 362.226 -169.947 -355.929
lowerback 5.13089 1.28052 0.582083
upperback 1.80527 1.6457 2.22574
thorax -1.06856 0.767167 1.86172
lowerneck -10.354 -2.91164 -12.5276
upperneck 37.1162 -9.12861 8.19951
head 15.786 -6.02228 3.86304
rclavicle 1.2424e-014 2.38542e-015
rhumerus -29.3371 -4.19688 -83.8918
rradius 38.3466
rwrist -13.1551
rhand -20.5025 11.8771
rfingers 7.12502
rthumb 5.8547 -18.022
lclavicle 1.2424e-014 2.38542e-015
lhumerus -38.3283 7.8326 75.9946
lradius 29.4642
lwrist 3.14311
lhand -22.1339 21.925
lfingers 7.12502
lthumb 4.27943 51.8617
rfemur -20.5316 -10.7558 27.1663
rtibia 47.7167
rfoot -24.9813 -3.95607
rtoes 9.12334
lfemur -11.8325 -0.255154 -13.8832
ltibia 35.7116
lfoot -23.2618 -8.05623
ltoes 1.38284
1136
root -12.0476 17.2127 21.8408 362.452 -170.48 -356.093
lowerback 4.62136 1.21405 0.38174
upperback 1.88282 1.54168 2.15656
thorax -0.705435 0.716302 1.92002
lowerneck -10.2793 -2.8926 -12.2826
upperneck 36.8821 -9.03314 8.00348
head 15.6069 -5.95975 3.74825
rclavicle -2.38542e-015 -5.1684e-015
rhumerus -29.4172 -4.44785 -83.8893
rradius 38.2507
rwrist -13.2907
rhand -20.3059 11.6072
rfingers 7.12502
rthumb 6.04444 -18.2866
lclavicle -2.38542e-015 -5.1684e-015
lhumerus -37.996 8.26361 75.3689
lradius 29.331
lwrist 3.21765
lhand -21.9905 21.9904
lfingers 7.12502
lthumb 4.41794 51.9243
rfemur -20.4393 -11.0351 27.1624
rtibia 47.5212
rfoot -24.7369 -4.04284
rtoes 8.60797
lfemur -11.9727 0.196168 -14.1099
ltibia 35.8393
lfoot -23.3856 -7.80425
ltoes 0.572999
1137
root -12.0431 17.2074 21.8266 362.492 -170.883 -356.008
lowerback 4.48382 1.08444 0.381749
upperback 1.89019 1.36695 2.15386
thorax -0.615672 0.628947 1.92885
lowerneck -10.2733 -2.85723 -12.208
upperneck 36.7333 -8.96324 7.98268
head 15.5137 -5.9193 3.73488
rclavicle -8.82107e-015 -2.38542e-015
rhumerus -29.5981 -4.65466 -84.0009
rradius 37.9719
rwrist -13.6695
rhand -20.4976 12.1081
rfingers 7.12502
rthumb 5.85937 -17.7909
lclavicle -8.82107e-015 -2.38542e-015
lhumerus -37.8777 8.80043 74.5475
lradius 29.2942
lwrist 3.19831
lhand -21.0964 21.9272
lfingers 7.12502
lthumb 5.28129 51.8413
rfemur -20.1421 -11.085 27.3849
rtibia 47.1951
rfoot -24.4174 -3.73644
rtoes 9.97779
lfemur -11.934 0.553637 -13.9889
ltibia 35.9678
lfoot -23.523 -7.81843
ltoes 0.900105
1138
root -12.052 17.1966 21.8353 362.678 -172.385 -356.019
lowerback 4.58003 1.25042 0.309966
upperback 1.74585 1.59377 2.19294
thorax -0.827621 0.744624 1.99415
lowerneck -10.145 -2.67699 -12.4284
upperneck 36.5564 -8.62249 8.00572
head 15.3563 -5.80738 3.84175
rclavicle -2.21893e-014 2.38542e-015
rhumerus -29.7924 -4.4712 -83.9823
rradius 37.5061
rwrist -13.7769
rhand -20.731 12.4703
rfingers 7.12502
rthumb 5.63408 -17.4348
lclavicle -2.21893e-014 2.38542e-015
lhumerus -37.959 9.4318 74.0548
lradius 29.4139
lwrist 4.09586
lhand -21.0335 22.5928
lfingers 7.12502
lthumb 5.34203 52.5055
rfemur -20.1195 -10.4491 27.3583
rtibia 46.7841
rfoot -23.9615 -2.83618
rtoes 12.1888
lfemur -11.8948 0.833861 -14.2339
ltibia 36.0637
lfoot -23.6644 -6.66973
ltoes 0.853368
1139
root -12.0577 17.1829 21.8165 362.423 -172.04 -356.169
lowerback 4.7148 0.853316 0.16129
upperback 1.73072 1.05976 2.22559
thorax -0.904072 0.477347 2.13791
lowerneck -9.88584 -2.49921 -12.3762
upperneck 36.3231 -8.33387 7.93864
head 15.1282 -5.69223 3.85265
rclavicle 2.26118e-015 3.24019e-014
rhumerus -30.0501 -4.51142 -83.9097
rradius 36.9423
rwrist -13.4856
rhand -20.8539 13.0254
rfingers 7.12502
rthumb 5.51537 -16.8828
lclavicle 2.26118e-015 3.24019e-014
lhumerus -37.9778 9.95317 73.6531
lradius 29.4259
lwrist 5.03458
lhand -21.4782 22.4024
lfingers 7.12502
lthumb 4.91264 52.3255
rfemur -19.4435 -11.022 27.1923
rtibia 46.2531
rfoot -24.3044 -2.67174
rtoes 13.0786
lfemur -11.6103 0.529031 -14.3713
ltibia 36.1366
lfoot -23.6368 -6.84625
ltoes 0.936709
1140
root -12.0625 17.1802 21.7989 362.416 -172.122 -356.171
lowerback 4.56115 0.704329 0.290653
upperback 1.74287 0.866087 2.14218
thorax -0.795587 0.381796 1.99146
lowerneck -9.97237 -2.47558 -12.152
upperneck 36.335 -8.36674 7.94321
head 15.1461 -5.68025 3.80562
rclavicle 5.54112e-015 6.16232e-015
rhumerus -30.133 -5.03746 -83.9045
rradius 36.3052
rwrist -13.0444
rhand -21.2022 13.5785
rfingers 7.12502
rthumb 5.17908 -16.3382
lclavicle 5.54112e-015 6.16232e-015
lhumerus -37.5094 10.6352 72.9518
lradius 28.8885
lwrist 4.59765
lhand -21.3299 20.8437
lfingers 7.12502
lthumb 5.05578 50.7634
rfemur -19.1348 -11.2214 27.2223
rtibia 45.7153
rfoot -24.7609 -2.81031
rtoes 12.2756
lfemur -11.5389 0.284126 -14.4063
ltibia 36.2196
lfoot -23.7586 -6.5827
ltoes 0.964205
1141
root -12.0659 17.1741 21.788 362.551 -172.489 -356.242
lowerback 5.19058 0.57517 0.0196118
upperback 1.28145 0.711908 2.30338
thorax -1.62118 0.314532 2.31219
lowerneck -10.3957 -2.29106 -12.2454
upperneck 36.9708 -8.15215 7.7497
head 15.5216 -5.67867 3.76726
rclavicle 3.10601e-015 1.2921e-014
rhumerus -30.8112 -4.81657 -83.6718
rradius 35.9833
rwrist -12.7104
rhand -21.4087 13.0274
rfingers 7.12502
rthumb 4.97976 -16.8941
lclavicle 3.10601e-015 1.2921e-014
lhumerus -37.7716 11.7954 72.238
lradius 28.3351
lwrist 3.50533
lhand -21.7594 20.922
lfingers 7.12502
lthumb 4.64111 50.8511
rfemur -18.9957 -11.2011 27.1831
rtibia 45.1914
rfoot -25.0168 -3.08879
rtoes 11.9061
lfemur -11.5772 0.149286 -14.5573
ltibia 36.2701
lfoot -23.8491 -6.1326
ltoes 1.1229
1142
root -12.0652 17.1595 21.7792 362.627 -172.989 -356.131
lowerback 4.87781 0.511849 -0.01779
upperback 1.40797 0.611291 2.48517
thorax -1.31481 0.257595 2.52932
lowerneck -10.6916 -2.18216 -12.2912
upperneck 36.9754 -7.83412 7.59951
head 15.5417 -5.55345 3.76004
rclavicle -1.963e-015 -3.97569e-016
rhumerus -30.6796 -4.83369 -83.4601
rradius 35.5616
rwrist -12.4661
rhand -21.4943 12.1634
rfingers 7.12502
rthumb 4.89706 -17.76
lclavicle -1.963e-015 -3.97569e-016
lhumerus -37.4266 12.374 72.0849
lradius 28.3086
lwrist 3.46949
lhand -22.689 22.7378
lfingers 7.12502
lthumb 3.74345 52.6847
rfemur -18.8551 -11.0787 27.3215
rtibia 44.7181
rfoot -25.0343 -3.17808
rtoes 12.6973
lfemur -11.5735 0.213953 -14.5112
ltibia 36.3734
lfoot -24.0742 -5.3918
ltoes -0.357901
1143
root -12.0615 17.1514 21.7684 362.702 -173.438 -355.88
lowerback 4.70159 0.423467 0.184566
upperback 1.38031 0.498804 2.56353
thorax -1.23865 0.199442 2.50353
lowerneck -10.6118 -2.01677 -12.0133
upperneck 36.8416 -7.54312 7.37796
head 15.3864 -5.41732 3.66255
rclavicle -1.6201e-014 -2.96189e-014
rhumerus -30.7318 -5.18126 -83.341
rradius 34.9053
rwrist -12.3685
rhand -21.8529 11.2405
rfingers 7.12502
rthumb 4.55079 -18.6906
lclavicle -1.6201e-014 -2.96189e-014
lhumerus -37.4671 12.0608 72.0641
lradius 28.8652
lwrist 4.81262
lhand -23.283 23.6865
lfingers 7.12502
lthumb 3.16976 53.6427
rfemur -18.7477 -10.8484 27.6206
rtibia 44.3057
rfoot -25.2248 -3.08364
rtoes 13.3851
lfemur -11.6131 0.373016 -14.279
ltibia 36.5444
lfoot -24.3941 -4.73195
ltoes -2.15734
1144
root -12.0561 17.148 21.7569 362.74 -173.792 -355.624
lowerback 4.73353 0.369878 0.466945
upperback 1.39874 0.434336 2.61641
thorax -1.23292 0.163743 2.40279
lowerneck -10.9062 -2.0033 -11.8514
upperneck 36.7583 -7.40597 7.25509
head 15.3823 -5.32642 3.59954
rclavicle -2.12948e-014 5.36719e-015
rhumerus -30.6909 -5.65078 -83.1968
rradius 34.3422
rwrist -12.4942
rhand -22.5212 9.77896
rfingers 7.12502
rthumb 3.90547 -20.165
lclavicle -2.12948e-014 5.36719e-015
lhumerus -37.2346 12.1919 71.8528
lradius 29.1969
lwrist 5.60271
lhand -23.2582 23.2423
lfingers 7.12502
lthumb 3.19379 53.1981
rfemur -18.4724 -10.4537 27.92
rtibia 43.9164
rfoot -25.6996 -2.92367
rtoes 12.76
lfemur -11.6662 0.35249 -14.006
ltibia 36.7663
lfoot -24.582 -4.35178
ltoes -2.48755
1145
root -12.0486 17.1463 21.745 362.724 -174.161 -355.38
lowerback 4.73402 0.288188 0.513886
upperback 1.29307 0.325736 2.84177
thorax -1.33848 0.106752 2.6155
lowerneck -10.6305 -1.82825 -12.0545
upperneck 36.61 -7.14358 7.32014
head 15.2174 -5.24914 3.70845
rclavicle -5.91384e-015 8.34896e-015
rhumerus -31.032 -5.89509 -82.7752
rradius 33.8224
rwrist -12.7593
rhand -22.116 9.85859
rfingers 7.12502
rthumb 4.29674 -20.0778
lclavicle -5.91384e-015 8.34896e-015
lhumerus -37.4099 13.0048 71.4778
lradius 29.2922
lwrist 5.41526
lhand -23.1339 23.1182
lfingers 7.12502
lthumb 3.31382 53.0722
rfemur -18.1011 -10.0744 28.1928
rtibia 43.5546
rfoot -25.9379 -2.6166
rtoes 12.0639
lfemur -11.6872 0.258808 -13.7587
ltibia 36.9899
lfoot -24.6431 -3.80158
ltoes -2.8018
1146
root -12.0385 17.147 21.7317 362.668 -174.497 -355.205
lowerback 4.67415 0.363229 0.737528
upperback 1.4296 0.423876 2.8113
thorax -1.16682 0.151479 2.45249
lowerneck -10.7741 -1.9147 -11.946
upperneck 36.4302 -7.30543 7.56767
head 15.1928 -5.24683 3.76656
rclavicle -9.0447e-015 7.15625e-015
rhumerus -30.9276 -7.38487 -82.2766
rradius 32.9177
rwrist -12.2932
rhand -20.6013 11.1315
rfingers 7.12502
rthumb 5.75925 -18.7703
lclavicle -9.0447e-015 7.15625e-015
lhumerus -36.8125 12.7087 71.5874
lradius 29.6139
lwrist 6.19694
lhand -23.6925 25.071
lfingers 7.12502
lthumb 2.77432 55.0327
rfemur -17.723 -9.68631 28.3803
rtibia 43.2138
rfoot -25.8461 -2.25794
rtoes 12.5902
lfemur -11.6299 0.0249242 -13.5789
ltibia 37.1983
lfoot -24.6683 -3.38307
ltoes -2.17693
1147
root -12.0272 17.1449 21.719 362.605 -174.739 -354.991
lowerback 4.75069 0.306035 0.847853
upperback 1.4364 0.347966 2.90077
thorax -1.19945 0.110127 2.48707
lowerneck -10.8142 -1.87317 -11.7386
upperneck 36.4735 -7.29748 7.49031
head 15.2078 -5.23392 3.69522
rclavicle -1.46355e-014 -1.59028e-015
rhumerus -30.9548 -8.34534 -81.8254
rradius 32.0542
rwrist -11.6409
rhand -19.946 11.3561
rfingers 7.12502
rthumb 6.39194 -18.5275
lclavicle -1.46355e-014 -1.59028e-015
lhumerus -36.4552 12.6013 71.6776
lradius 29.7639
lwrist 7.01205
lhand -23.906 26.2967
lfingers 7.12502
lthumb 2.56816 56.261
rfemur -17.3934 -9.18909 28.6004
rtibia 42.9028
rfoot -25.8247 -1.91497
rtoes 13.6919
lfemur -11.5351 -0.236096 -13.3238
ltibia 37.3625
lfoot -24.7756 -3.22299
ltoes -0.862426
1148
root -12.0175 17.146 21.705 362.717 -174.924 -354.715
lowerback 4.67657 0.17533 0.917818
upperback 1.3133 0.17307 3.13555
thorax -1.27834 0.0193251 2.7006
lowerneck -10.7144 -1.71748 -11.737
upperneck 36.5909 -7.09155 7.32712
head 15.2034 -5.1954 3.6578
rclavicle -1.63997e-015 8.94531e-015
rhumerus -31.2204 -8.52398 -81.4313
rradius 31.5148
rwrist -11.6935
rhand -19.9656 11.4046
rfingers 7.12502
rthumb 6.37301 -18.4795
lclavicle -1.63997e-015 8.94531e-015
lhumerus -36.2856 13.6774 71.1557
lradius 29.0776
lwrist 5.52608
lhand -22.0111 23.148
lfingers 7.12502
lthumb 4.39805 53.0823
rfemur -17.3402 -8.95027 28.9067
rtibia 42.6343
rfoot -25.9026 -1.74657
rtoes 13.6528
lfemur -11.6535 0.0196743 -12.9806
ltibia 37.4754
lfoot -24.902 -3.03222
ltoes -2.01528
